<?xml version="1.0" encoding="utf-8"?>
<!-- Generator: Adobe Illustrator 16.0.0, SVG Export Plug-In . SVG Version: 6.00 Build 0)  -->
<!DOCTYPE svg PUBLIC "-//W3C//DTD SVG 1.1//EN" "http://www.w3.org/Graphics/SVG/1.1/DTD/svg11.dtd">
<svg version="1.1" id="Layer_1" xmlns="http://www.w3.org/2000/svg" xmlns:xlink="http://www.w3.org/1999/xlink" x="0px" y="0px"
	 width="128px" height="128px" viewBox="0 0 128 128" enable-background="new 0 0 128 128" xml:space="preserve">
<g>
	<g>
		<g>
			<path fill="#282D33" d="M54.698,101.969L9.003,55.947c-12.004-12.091-12.004-31.767,0-43.86l0.434-0.434
				c5.816-5.857,13.558-9.087,21.792-9.087c0.001,0,0,0,0.001,0c8.234,0,15.974,3.229,21.793,9.092l1.674,1.688l1.675-1.688
				c5.821-5.862,13.561-9.092,21.795-9.092s15.976,3.229,21.797,9.092l0.43,0.438c8.765,8.824,11.42,22.013,6.756,33.59
				l-3.711-1.495c4.065-10.093,1.753-21.588-5.893-29.285l-0.43-0.438c-5.056-5.092-11.789-7.901-18.949-7.9
				c-7.16,0-13.892,2.809-18.956,7.91l-4.516,4.548l-4.513-4.549c-5.063-5.1-11.794-7.909-18.954-7.909c0,0-0.001,0-0.001,0
				c-7.161,0-13.893,2.809-18.958,7.91l-0.434,0.434C1.381,25.445,1.381,42.592,11.842,53.128l42.855,43.163l6.652-6.7l2.839,2.818
				L54.698,101.969z"/>
		</g>
	</g>
	<g>
		<path fill="#282D33" d="M110.116,125.434c-5.493,0-7.771-6.137-11.905-17.276c-1.479-3.983-2.857-5.036-3.381-5.036
			c-0.438,0-1.907,0.905-3.439,5.035c-4.132,11.141-6.407,17.277-11.904,17.277c-5.296,0-10.656-7.546-10.656-21.967
			c0-7.219-1.427-10.521-3.077-14.342c-1.293-2.995-2.758-6.389-3.679-11.949c-1.862-11.258,1.847-21.779,9.021-25.588
			c4.206-2.464,6.86-3.656,10.375-3.656c2.57,0,5.451,0.637,9.871,1.81c1.2,0.315,2.337,0.536,3.46,0.672
			c1.11-0.134,2.245-0.354,3.463-0.673c4.412-1.172,7.294-1.808,9.865-1.808c3.52,0,6.174,1.192,10.45,3.696
			c7.101,3.767,10.808,14.288,8.941,25.548c-0.933,5.635-2.404,9.041-3.703,12.047c-1.639,3.791-3.054,7.065-3.054,14.243
			C120.764,117.888,115.407,125.434,110.116,125.434z M94.83,99.12c2.848,0,5.247,2.572,7.131,7.645
			c3.785,10.199,5.7,14.668,8.155,14.668c2.245,0,6.647-5.425,6.647-17.966c0-8.005,1.643-11.807,3.381-15.831
			c1.267-2.931,2.576-5.961,3.431-11.113c1.563-9.436-1.357-18.436-6.944-21.4c-3.864-2.261-5.872-3.188-8.502-3.188
			c-2.122,0-4.85,0.614-8.846,1.675c-1.495,0.392-2.888,0.655-4.265,0.806l-0.22,0.024l-0.22-0.024
			c-1.391-0.154-2.784-0.417-4.26-0.805c-4.002-1.063-6.729-1.677-8.85-1.677c-2.625,0-4.634,0.929-8.427,3.148
			c-5.661,3.007-8.583,12.007-7.021,21.442c0.84,5.076,2.145,8.095,3.405,11.015c1.75,4.054,3.403,7.883,3.403,15.929
			c0,12.541,4.408,17.966,6.656,17.966c2.457,0,4.371-4.469,8.153-14.667C89.983,100.446,92.844,99.12,94.83,99.12z"/>
	</g>
	<g>
		<path fill="#282D33" d="M70.342,77.191c-1.318-7.968,0.957-15.713,5.294-18.013l0.224-0.125c3.605-2.112,5.076-2.696,6.807-2.696
			v4.001c-0.634,0-1.391,0.159-4.823,2.169l-0.297,0.166c-2.158,1.146-4.46,6.577-3.257,13.846L70.342,77.191z"/>
	</g>
	<g>
		<g>
			<rect x="82.278" y="30.306" fill="#282D33" width="4" height="10.829"/>
		</g>
		<g>
			
				<rect x="67.261" y="35.217" transform="matrix(0.3398 0.9405 -0.9405 0.3398 82.9765 -43.7777)" fill="#282D33" width="10.822" height="4"/>
		</g>
		<g>
			
				<rect x="56.873" y="40.619" transform="matrix(0.6402 0.7682 -0.7682 0.6402 55.1416 -32.5029)" fill="#282D33" width="10.798" height="4"/>
		</g>
		<g>
			
				<rect x="48.951" y="49.281" transform="matrix(0.8644 0.5028 -0.5028 0.8644 33.1521 -20.367)" fill="#282D33" width="10.772" height="4"/>
		</g>
		<g>
			
				<rect x="44.438" y="60.151" transform="matrix(0.9846 0.1749 -0.1749 0.9846 11.6403 -7.7561)" fill="#282D33" width="10.758" height="4"/>
		</g>
		<g>
			
				<rect x="47.265" y="68.546" transform="matrix(0.1748 0.9846 -0.9846 0.1748 113.4385 12.495)" fill="#282D33" width="4" height="10.755"/>
		</g>
		<g>
			
				<rect x="50.742" y="79.789" transform="matrix(0.5028 0.8644 -0.8644 0.5028 99.8537 -3.2386)" fill="#282D33" width="4" height="10.775"/>
		</g>
	</g>
</g>
</svg>
